# xmcd CD database file
#
# Track frame offsets:
#	150
#	28719
#	51032
#	89125
#	108405
#	145550
#	167950
#	187357
#	215982
#	241072
#	273122
#
# Disc length: 3966 seconds
#
# Revision: 0
# Processed by: cddbd v1.5.1PL0 Copyright (c) Steve Scherf et al.
# Submitted via: CDex 1.50beta10
#
DISCID=a40f7c0b
DTITLE=Ulf Adåker - Reflections
DYEAR=2001
DGENRE=Jazz
TTITLE0=East Of The Sun
TTITLE1=Gallop's Gallop
TTITLE2=Reflections
TTITLE3=How About You
TTITLE4=Over The Rainbow
TTITLE5=Manhattan
TTITLE6=La Mano
TTITLE7=And More...
TTITLE8=A Flower Is A Lovesome Thing
TTITLE9=The Cape Of Good Hope
TTITLE10=Loose Change
EXTD=YEAR: 2001
EXTT0=
EXTT1=
EXTT2=
EXTT3=
EXTT4=
EXTT5=
EXTT6=
EXTT7=
EXTT8=
EXTT9=
EXTT10=
PLAYORDER=
